<svg width="37" height="44" viewBox="0 0 37 44" fill="none" xmlns="http://www.w3.org/2000/svg">
<path d="M36.4414 38.6934C34.4883 40.373 32.3008 41.6621 29.8789 42.5605C27.457 43.459 24.9473 43.9082 22.3496 43.9082C20.3574 43.9082 18.4336 43.6445 16.5781 43.1172C14.7422 42.6094 13.0137 41.8867 11.3926 40.9492C9.79102 39.9922 8.32617 38.8496 6.99805 37.5215C5.66992 36.1934 4.52734 34.7285 3.57031 33.127C2.63281 31.5059 1.90039 29.7773 1.37305 27.9414C0.865234 26.0859 0.611328 24.1621 0.611328 22.1699C0.611328 20.1777 0.865234 18.2539 1.37305 16.3984C1.90039 14.543 2.63281 12.8145 3.57031 11.2129C4.52734 9.5918 5.66992 8.11719 6.99805 6.78906C8.32617 5.46094 9.79102 4.32812 11.3926 3.39062C13.0137 2.43359 14.7422 1.70117 16.5781 1.19336C18.4336 0.666016 20.3574 0.402344 22.3496 0.402344C24.9473 0.402344 27.457 0.851562 29.8789 1.75C32.3008 2.62891 34.4883 3.91797 36.4414 5.61719L31.9883 12.9414C30.7578 11.6133 29.3027 10.5977 27.623 9.89453C25.9434 9.17187 24.1855 8.81055 22.3496 8.81055C20.4941 8.81055 18.7559 9.16211 17.1348 9.86523C15.5137 10.5684 14.0977 11.5254 12.8867 12.7363C11.6758 13.9277 10.7188 15.3438 10.0156 16.9844C9.3125 18.6055 8.96094 20.334 8.96094 22.1699C8.96094 24.0059 9.3125 25.7344 10.0156 27.3555C10.7188 28.957 11.6758 30.3633 12.8867 31.5742C14.0977 32.7852 15.5137 33.7422 17.1348 34.4453C18.7559 35.1484 20.4941 35.5 22.3496 35.5C24.1855 35.5 25.9434 35.1484 27.623 34.4453C29.3027 33.7227 30.7578 32.6973 31.9883 31.3691L36.4414 38.6934Z" fill="black"/>
</svg>
