<svg width="29" height="45" viewBox="0 0 29 45" fill="none" xmlns="http://www.w3.org/2000/svg">
<path d="M23.62 31.1C22.66 33.3 21.58 35.22 20.38 36.86C19.22 38.46 17.98 39.82 16.66 40.94C15.38 42.02 14.08 42.82 12.76 43.34C11.44 43.86 10.16 44.12 8.92 44.12C7.68 44.12 6.54 43.84 5.5 43.28C4.5 42.72 3.62 41.88 2.86 40.76C2.1 39.64 1.48 38.26 1 36.62C0.56 34.98 0.34 33.06 0.34 30.86C0.34 27.1 0.86 23.4 1.9 19.76C2.94 16.08 4.4 12.78 6.28 9.86C8.16 6.94 10.38 4.6 12.94 2.84C15.54 1.04 18.4 0.14 21.52 0.14C22.48 0.14 23.4 0.339999 24.28 0.739999C25.16 1.14 25.92 1.7 26.56 2.42C27.2 3.14 27.7 4.02 28.06 5.06C28.46 6.1 28.66 7.26 28.66 8.54C28.66 8.78 28.66 9.04 28.66 9.32C28.66 9.56 28.64 9.82 28.6 10.1L20.74 12.2C20.26 11.2 19.7 10.7 19.06 10.7C18.42 10.7 17.74 11.08 17.02 11.84C16.34 12.56 15.66 13.52 14.98 14.72C14.3 15.88 13.64 17.2 13 18.68C12.36 20.12 11.8 21.58 11.32 23.06C10.84 24.54 10.44 25.96 10.12 27.32C9.84 28.64 9.7 29.72 9.7 30.56C9.7 31.84 9.86 32.74 10.18 33.26C10.54 33.78 11 34.04 11.56 34.04C12 34.04 12.5 33.88 13.06 33.56C13.62 33.2 14.14 32.76 14.62 32.24C15.1 31.68 15.54 31.06 15.94 30.38C16.34 29.7 16.62 29.02 16.78 28.34L23.62 31.1Z" fill="black"/>
</svg>
